<svg xmlns="http://www.w3.org/2000/svg" viewBox="0 0 900 260" role="img" aria-label="Alraqi Sports logo">
  <defs>
    <linearGradient id="markBg" x1="42" y1="18" x2="208" y2="230" gradientUnits="userSpaceOnUse">
      <stop stop-color="#7C3AED"/>
      <stop offset=".55" stop-color="#12365F"/>
      <stop offset="1" stop-color="#0B1020"/>
    </linearGradient>
    <linearGradient id="markPulse" x1="76" y1="70" x2="184" y2="190" gradientUnits="userSpaceOnUse">
      <stop stop-color="#22D3EE"/>
      <stop offset="1" stop-color="#10B981"/>
    </linearGradient>
    <linearGradient id="word" x1="350" y1="62" x2="720" y2="170" gradientUnits="userSpaceOnUse">
      <stop stop-color="#F8FAFC"/>
      <stop offset=".55" stop-color="#22D3EE"/>
      <stop offset="1" stop-color="#10B981"/>
    </linearGradient>
  </defs>
  <rect width="900" height="260" rx="36" fill="#0B1020"/>
  <path d="M0 211c101-48 186-70 294-62 105 7 186 45 310 38 85-5 174-31 296-94v167H0Z" fill="#141C2F" opacity=".64"/>
  <g transform="translate(56 42)">
    <rect width="176" height="176" rx="48" fill="url(#markBg)"/>
    <path d="M32 128c35 24 73 36 116 31" fill="none" stroke="#22D3EE" stroke-width="10" stroke-linecap="round" opacity=".36"/>
    <circle cx="88" cy="85" r="48" fill="rgba(11,16,32,.48)" stroke="rgba(255,255,255,.18)" stroke-width="5"/>
    <path d="M46 86c0-24 19-43 43-43s43 19 43 43" fill="none" stroke="url(#markPulse)" stroke-width="13" stroke-linecap="round"/>
    <path d="M61 115h54" fill="none" stroke="#F8FAFC" stroke-width="13" stroke-linecap="round"/>
    <path d="m70 75 19 20 20-20" fill="none" stroke="#A855F7" stroke-width="14" stroke-linecap="round" stroke-linejoin="round"/>
    <circle cx="133" cy="39" r="20" fill="#10B981"/>
  </g>
  <text x="318" y="105" fill="url(#word)" font-family="Tajawal, Segoe UI, Arial, sans-serif" font-size="58" font-weight="900">الراقي سبورت</text>
  <text x="318" y="155" fill="#94A3B8" font-family="Tajawal, Segoe UI, Arial, sans-serif" font-size="25" font-weight="700">منصة بث ومتابعة كأس العالم 2026</text>
  <g transform="translate(540 184)">
    <rect width="302" height="38" rx="19" fill="rgba(34,211,238,.10)" stroke="rgba(34,211,238,.25)"/>
    <text x="151" y="26" text-anchor="middle" fill="#67E8F9" font-family="Segoe UI, Arial, sans-serif" font-size="17" font-weight="800">ALRAQI SPORTS LIVE</text>
  </g>
</svg>
